# xmcd
#
# Track frame offsets:
#	150
#	13204
#	30374
#	51515
#	91603
#	115232
#	132660
#	143280
#	146802
#
# Disc length: 2566 seconds
#
# Revision: 1
# Processed by: cddbd v1.5.2PL0 Copyright (c) Steve Scherf et al.
# Submitted via: audiograbber 1.83.01
#
DISCID=780a0409
DTITLE=Grateful Dead - 67-03-18 Winterland Arena, San Francisco CA
DYEAR=1900
DGENRE=
TTITLE0=Me and My Uncle
TTITLE1=Next Time You See Me
TTITLE2=He Was A Friend Of Mine
TTITLE3=Smokestack Lightning
TTITLE4=Morning Dew
TTITLE5=It Hurts Me Too
TTITLE6=BIODTL
TTITLE7=Stage Banter
TTITLE8=Dancing In The Streets
EXTD=
EXTT0=
EXTT1=
EXTT2=
EXTT3=
EXTT4=
EXTT5=
EXTT6=
EXTT7=
EXTT8=
PLAYORDER=
